<svg width="1214" height="372" viewBox="0 0 1214 372" fill="none" xmlns="http://www.w3.org/2000/svg">
<path d="M2.24504 128.902C0.888706 128.357 0 127.042 0 125.58C0 123.603 1.603 122 3.5804 122H186C190.418 122 194 118.418 194 114V8C194 3.58172 197.582 0 202 0H1002C1006.42 0 1010 3.58172 1010 8V114C1010 118.418 1013.58 122 1018 122H1210.42C1212.4 122 1214 123.603 1214 125.58C1214 127.042 1213.11 128.357 1211.76 128.902L609.984 370.801C608.069 371.57 605.931 371.57 604.016 370.801L2.24504 128.902Z" fill="#35679A" fill-opacity="0.05"/>
</svg>
