<svg width="24" height="24" viewBox="0 0 24 24" fill="none" xmlns="http://www.w3.org/2000/svg">
<path d="M7.14 1.92749C7.41166 1.92893 7.68269 1.95403 7.95 2.00249C8.24837 2.05206 8.54021 2.13508 8.82 2.24999C8.93574 2.30013 9.03696 2.37864 9.11431 2.47828C9.19165 2.57791 9.24262 2.69544 9.2625 2.81999L10.23 8.99999C10.2552 9.14206 10.2389 9.28838 10.183 9.42141C10.1271 9.55443 10.0341 9.66852 9.915 9.74999C9.59513 10.0222 9.23611 10.2447 8.85 10.41C9.71593 12.1215 11.106 13.5116 12.8175 14.3775C12.985 13.9801 13.2127 13.6107 13.4925 13.2825C13.5777 13.1688 13.6934 13.0817 13.8262 13.0313C13.959 12.9808 14.1033 12.9691 14.2425 12.9975L20.34 13.9125C20.4646 13.9324 20.5821 13.9833 20.6817 14.0607C20.7813 14.138 20.8599 14.2393 20.91 14.355C21.0303 14.6341 21.1184 14.926 21.1725 15.225C21.2206 15.4898 21.2457 15.7583 21.2475 16.0275C21.2475 17.1931 20.7845 18.311 19.9602 19.1352C19.136 19.9594 18.0181 20.4225 16.8525 20.4225C13.1135 20.4165 9.52941 18.9281 6.88622 16.2835C4.24303 13.6389 2.75647 10.054 2.7525 6.31499C2.75448 5.15196 3.21737 4.03714 4.03976 3.21475C4.86214 2.39236 5.97697 1.92947 7.14 1.92749ZM16.89 18.9225C17.6578 18.9225 18.3942 18.6175 18.9371 18.0746C19.48 17.5316 19.785 16.7953 19.785 16.0275C19.7831 15.8463 19.7655 15.6656 19.7325 15.4875C19.7325 15.4275 19.7325 15.375 19.7325 15.315L14.4825 14.49C14.2892 14.7976 14.1544 15.1384 14.085 15.495C14.0763 15.541 14.0638 15.5861 14.0475 15.63C13.9785 15.8035 13.8472 15.945 13.6794 16.0268C13.5115 16.1086 13.3192 16.1249 13.14 16.0725L13.0275 16.0275C11.7203 15.5002 10.5327 14.7152 9.53533 13.7192C8.53801 12.7231 7.75143 11.5365 7.2225 10.23C7.1691 10.1259 7.14081 10.0107 7.13989 9.89367C7.13897 9.77666 7.16544 9.66105 7.21719 9.5561C7.26894 9.45114 7.34453 9.35975 7.43791 9.28924C7.5313 9.21872 7.63989 9.17103 7.755 9.14999C8.1126 9.08389 8.45393 8.94888 8.76 8.75249L7.935 3.50249H7.77C7.58937 3.46914 7.40618 3.45157 7.2225 3.44999C6.4547 3.44999 5.71834 3.755 5.17542 4.29792C4.63251 4.84083 4.3275 5.57719 4.3275 6.34499C4.33927 9.66935 5.66201 12.8549 8.00848 15.2098C10.355 17.5647 13.5357 18.8988 16.86 18.9225H16.89Z" fill="#333333"/>
</svg>
