<svg width="61" height="52" viewBox="0 0 61 52" fill="none" xmlns="http://www.w3.org/2000/svg">
<path d="M1.5 17C2.32843 17 3 16.3284 3 15.5L3 3H15.5C16.3284 3 17 2.32843 17 1.5C17 0.671573 16.3284 0 15.5 0H2C0.895431 0 8.19294e-07 0.89543 7.57329e-07 2L0 15.5C-4.64735e-08 16.3284 0.671573 17 1.5 17Z" fill="#35679A"/>
<path d="M1.5 35C2.32843 35 3 35.6716 3 36.5L3 49H15.5C16.3284 49 17 49.6716 17 50.5C17 51.3284 16.3284 52 15.5 52H2C0.895431 52 8.19294e-07 51.1046 7.57329e-07 50L0 36.5C-4.64735e-08 35.6716 0.671573 35 1.5 35Z" fill="#35679A"/>
<path d="M59.5 17C58.6716 17 58 16.3284 58 15.5V3H45.5C44.6716 3 44 2.32843 44 1.5C44 0.671573 44.6716 0 45.5 0H59C60.1046 0 61 0.89543 61 2V15.5C61 16.3284 60.3284 17 59.5 17Z" fill="#35679A"/>
<path d="M59.5 35C58.6716 35 58 35.6716 58 36.5V49H45.5C44.6716 49 44 49.6716 44 50.5C44 51.3284 44.6716 52 45.5 52H59C60.1046 52 61 51.1046 61 50V36.5C61 35.6716 60.3284 35 59.5 35Z" fill="#35679A"/>
<path d="M49 10.5C49 9.67157 49.6716 9 50.5 9C51.3284 9 52 9.67157 52 10.5V41.5C52 42.3284 51.3284 43 50.5 43C49.6716 43 49 42.3284 49 41.5V10.5Z" fill="#35679A"/>
<path d="M29 10.5C29 9.67157 29.6716 9 30.5 9C31.3284 9 32 9.67157 32 10.5V42.5C32 43.3284 31.3284 44 30.5 44C29.6716 44 29 43.3284 29 42.5V10.5Z" fill="#35679A"/>
<path d="M19 10.5C19 9.67157 19.6716 9 20.5 9C21.3284 9 22 9.67157 22 10.5V42.5C22 43.3284 21.3284 44 20.5 44C19.6716 44 19 43.3284 19 42.5V10.5Z" fill="#35679A"/>
<path d="M39 10.5C39 9.67157 39.6716 9 40.5 9C41.3284 9 42 9.67157 42 10.5V38.5C42 39.3284 41.3284 40 40.5 40C39.6716 40 39 39.3284 39 38.5V10.5Z" fill="#35679A"/>
<path d="M9 10.5C9 9.67157 9.67157 9 10.5 9C11.3284 9 12 9.67157 12 10.5V38.5C12 39.3284 11.3284 40 10.5 40C9.67157 40 9 39.3284 9 38.5V10.5Z" fill="#35679A"/>
</svg>
