<svg width="320" height="469" viewBox="0 0 320 469" fill="none" xmlns="http://www.w3.org/2000/svg">
<path d="M0.705967 382C0.270401 381.759 0 381.301 0 380.803C0 380.048 0.612021 379.436 1.36699 379.436H34.3455C38.7638 379.436 42.3455 375.854 42.3455 371.436L42.3455 8.00001C42.3455 3.58173 45.9273 0 50.3455 0H267.019C271.437 0 275.019 3.58172 275.019 8V371.436C275.019 375.854 278.6 379.436 283.019 379.436H318.633C319.388 379.436 320 380.048 320 380.803C320 381.301 319.73 381.759 319.294 382L163.868 467.863C161.461 469.193 158.539 469.193 156.132 467.863L0.705967 382Z" fill="#35679A" fill-opacity="0.05"/>
</svg>
