<svg width="24" height="24" viewBox="0 0 24 24" fill="none" xmlns="http://www.w3.org/2000/svg">
<path fill-rule="evenodd" clip-rule="evenodd" d="M7.25 1.25C6.14543 1.25 5.25 2.14543 5.25 3.25V20.75C5.25 21.8546 6.14543 22.75 7.25 22.75H16.75C17.8546 22.75 18.75 21.8546 18.75 20.75V3.25C18.75 2.14543 17.8546 1.25 16.75 1.25H7.25ZM6.75 3.75C6.75 3.19772 7.19772 2.75 7.75 2.75H9V3.23176C9 3.78404 9.44772 4.23176 10 4.23176H14C14.5523 4.23176 15 3.78404 15 3.23176V2.75H16.25C16.8023 2.75 17.25 3.19772 17.25 3.75V20.25C17.25 20.8023 16.8023 21.25 16.25 21.25H7.75C7.19772 21.25 6.75 20.8023 6.75 20.25V3.75Z" fill="#333333"/>
</svg>
