<svg width="26" height="27" viewBox="0 0 26 27" fill="none" xmlns="http://www.w3.org/2000/svg">
<path d="M13.5775 8.61048C13.5874 8.42765 13.7439 8.28745 13.927 8.29733C14.6202 8.33475 15.1931 8.54397 15.6002 8.96623C16.0054 9.38654 16.2026 9.97272 16.2396 10.6755C16.2493 10.8583 16.1086 11.0144 15.9255 11.024C15.7424 11.0336 15.5861 10.8932 15.5765 10.7104C15.5446 10.1056 15.3799 9.6939 15.1217 9.42602C14.8653 9.1601 14.4731 8.99082 13.8912 8.95941C13.708 8.94953 13.5676 8.79331 13.5775 8.61048Z" fill="#665CA7"/>
<path d="M13.4869 6.5087C13.3041 6.49429 13.1442 6.63058 13.1297 6.8131C13.1153 6.99563 13.2518 7.15527 13.4346 7.16968C14.6793 7.26779 15.6278 7.68812 16.3176 8.43932C16.9788 9.16244 17.3313 10.1092 17.2991 11.2341C17.2939 11.4171 17.4382 11.5697 17.6215 11.575C17.8048 11.5802 17.9577 11.4361 17.9629 11.253C17.9997 9.96943 17.594 8.85171 16.8078 7.99203L16.8074 7.99155C15.9808 7.09126 14.8615 6.61704 13.4869 6.5087Z" fill="#665CA7"/>
<path d="M12.4741 5.15317C12.4741 4.97008 12.6228 4.82165 12.8061 4.82165C14.7489 4.82165 16.3843 5.47141 17.6904 6.73916C19.006 8.01616 19.6865 9.75915 19.6865 11.9318C19.6865 12.1149 19.5379 12.2633 19.3545 12.2633C19.1711 12.2633 19.0224 12.1149 19.0224 11.9318C19.0224 9.9065 18.3933 8.34621 17.2274 7.21456C16.052 6.07367 14.5856 5.48469 12.8061 5.48469C12.6228 5.48469 12.4741 5.33627 12.4741 5.15317Z" fill="#665CA7"/>
<path d="M14.7017 14.8562C14.4605 15.1659 13.978 15.1315 13.978 15.1315C10.5661 14.2369 9.7045 10.8305 9.7045 10.8305C9.7045 10.8305 9.67005 10.3488 9.98022 10.1079L10.6006 9.62622C10.8763 9.38536 11.083 8.80043 10.7729 8.2499C10.6959 8.13461 10.5998 7.98594 10.4971 7.82696C10.3238 7.55893 10.1316 7.26161 9.98022 7.04563C9.70451 6.66714 9.08416 5.91016 9.08416 5.91016C8.77399 5.53167 8.32596 5.46285 7.84347 5.70371C7.39545 5.97897 6.98188 6.32305 6.60278 6.73595C6.29261 7.08003 6.1203 7.4241 6.08583 7.76818V7.90582C6.08583 8.07784 6.12029 8.21546 6.15475 8.35307C6.2926 8.9036 6.67171 9.76384 7.46437 11.209C7.98133 12.138 8.53274 12.9294 9.0497 13.5831C9.32541 13.9272 9.63558 14.2713 10.0147 14.6498L10.1525 14.7874C10.4972 15.1659 10.8763 15.4756 11.2209 15.7508C11.8757 16.2669 12.6684 16.8175 13.5989 17.3336C15.0808 18.125 15.9424 18.5035 16.4594 18.6411C16.5972 18.6755 16.7695 18.7099 16.9074 18.7099H17.0452C17.3899 18.6411 17.7345 18.5035 18.0791 18.1938C18.5272 17.8153 18.8718 17.4024 19.1131 16.9551C19.3543 16.4734 19.2854 16.0261 18.9063 15.7164C18.9063 15.7164 18.1481 15.0971 17.769 14.8218C17.4243 14.5465 16.8729 14.2025 16.5628 14.0304C15.9769 13.7208 15.4255 13.9272 15.1842 14.2369L14.7017 14.8562Z" fill="#665CA7"/>
<path fill-rule="evenodd" clip-rule="evenodd" d="M22.6627 2.67581C22.0079 2.09088 19.3887 0.164037 13.4954 0.129629C13.4954 0.129629 6.56823 -0.28327 3.1908 2.81344C1.29531 4.70588 0.640499 7.42411 0.571572 10.8305C0.502644 14.2369 0.399262 20.6023 6.56824 22.3571V25.0065C6.56824 25.0065 6.53377 26.0732 7.22304 26.2796C7.92331 26.5034 8.37314 25.9998 8.96113 25.3415C9.09657 25.1898 9.23938 25.03 9.39424 24.8689C9.84227 24.3872 10.4626 23.699 10.9106 23.1485C15.1152 23.4926 18.3548 22.7012 18.7339 22.5636C18.8095 22.5394 18.9154 22.5126 19.0462 22.4795C20.4058 22.1353 24.4555 21.11 25.1785 15.3035C26.0057 8.6972 24.8339 4.53384 22.6627 2.67581ZM23.3864 14.7874C22.7896 19.6488 19.5009 20.3648 18.3756 20.6098C18.2664 20.6335 18.1775 20.6529 18.1135 20.6711C17.8034 20.7744 14.9773 21.4625 11.3931 21.2561C11.3931 21.2561 8.73944 24.456 7.87785 25.3162C7.73999 25.4538 7.60214 25.4883 7.49875 25.4883C7.36089 25.4538 7.32643 25.2818 7.32643 25.041C7.32643 24.6969 7.36089 20.6367 7.36089 20.6367C2.37257 19.2515 2.45083 14.1989 2.49624 11.2672C2.4982 11.1405 2.5001 11.0176 2.50153 10.8993C2.57046 8.04344 3.08742 5.73811 4.67274 4.15535C7.53322 1.57475 13.4265 1.95324 13.4265 1.95324C18.3892 1.98765 20.7672 3.46719 21.3186 3.98331C23.1107 5.56607 24.0412 9.31654 23.3864 14.7874Z" fill="#665CA7"/>
</svg>
