<svg width="59" height="33" viewBox="0 0 59 33" fill="none" xmlns="http://www.w3.org/2000/svg">
<path d="M58.9958 32.1272C58.0618 32.1359 57.1319 32.1359 56.1978 32.1622C55.8059 32.1753 55.6682 32.0133 55.6724 31.606C55.6891 30.4894 55.6766 29.3684 55.6766 28.2517C55.6766 28.0634 55.6766 27.8751 55.6766 27.6474C55.4389 27.7131 55.393 27.897 55.3096 28.0328C54.5465 29.2633 53.7793 30.4894 53.0329 31.733C52.8411 32.0527 52.6117 32.1797 52.2573 32.1709C51.5067 32.149 50.7603 32.1534 50.0097 32.1709C49.6344 32.1797 49.4676 32.0571 49.4718 31.6367C49.4843 28.4531 49.4843 25.274 49.4718 22.0904C49.4718 21.6831 49.6135 21.5255 49.9972 21.5343C50.7478 21.5518 51.4983 21.5518 52.2448 21.5343C52.6617 21.5255 52.8035 21.7138 52.7993 22.1342C52.7868 23.3209 52.7993 24.512 52.7993 25.6987C52.7993 25.887 52.7993 26.0797 52.7993 26.303C53.0329 26.2505 53.0746 26.0622 53.158 25.9308C53.9878 24.6215 54.8176 23.3122 55.6307 21.9897C55.835 21.6525 56.0769 21.5211 56.4522 21.5343C57.3029 21.5562 58.1493 21.543 59 21.543V32.1403L58.9958 32.1272Z" fill="black" fill-opacity="0.05"/>
<path d="M8.33564 0.957177C9.16963 0.957177 9.99943 0.979076 10.8334 0.948423C11.2546 0.935286 11.4547 1.09293 11.584 1.51769C12.8266 5.70405 14.0901 9.88165 15.3453 14.0636C15.7247 15.3292 16.0958 16.5991 16.4878 17.8603C16.6087 18.2456 16.5378 18.4033 16.125 18.3989C14.6781 18.3857 13.2269 18.3857 11.78 18.3989C11.4547 18.3989 11.2963 18.2544 11.2087 17.9478C11.0461 17.3961 10.8543 16.8575 10.6916 16.3057C10.6082 16.0211 10.4665 15.8722 10.1621 15.8765C8.94862 15.8897 7.73101 15.8853 6.51756 15.8765C6.2215 15.8765 6.0547 15.9948 5.96713 16.2882C5.80451 16.8399 5.60853 17.3786 5.45007 17.9303C5.35416 18.2675 5.17485 18.4033 4.83709 18.3989C3.40681 18.3857 1.97236 18.3814 0.542086 18.3989C0.0833964 18.4033 0.00416826 18.2456 0.141775 17.8033C0.984096 15.0402 1.81391 12.277 2.64372 9.50943C3.44017 6.86011 4.24496 4.21518 5.02474 1.56149C5.16234 1.09731 5.37918 0.922146 5.84204 0.939662C6.67185 0.974694 7.50583 0.948423 8.33981 0.948423L8.33564 0.957177ZM8.37317 8.68179C8.33147 8.67741 8.28977 8.67303 8.25225 8.66866C7.94367 9.65394 7.6351 10.6392 7.32652 11.6245C7.25564 11.8478 7.32652 11.9573 7.55587 11.9573C8.01873 11.9573 8.48576 11.9573 8.94862 11.9573C9.21132 11.9573 9.3114 11.8522 9.22383 11.5676C8.93611 10.6086 8.65672 9.64518 8.37317 8.68179Z" fill="black" fill-opacity="0.05"/>
<path d="M41.5156 10.9677C41.9993 11.1954 42.4496 11.3705 42.8166 11.7165C44.7514 13.5688 44.0342 17.1596 41.5406 18.0748C40.9902 18.2763 40.4147 18.3901 39.8268 18.3901C37.6292 18.3901 35.4317 18.3814 33.23 18.3989C32.7588 18.3989 32.592 18.2456 32.592 17.742C32.6045 13.5119 32.6045 9.28172 32.592 5.05157C32.592 4.58302 32.7296 4.40348 33.1925 4.40786C35.2065 4.42975 37.2248 4.39472 39.2388 4.42099C41.8116 4.45603 43.3837 6.66744 42.7457 9.29048C42.5664 10.0305 42.1452 10.5516 41.5156 10.9589V10.9677ZM36.9329 13.7177C36.9329 13.9279 36.9329 14.1381 36.9329 14.3439C36.9329 14.5453 37.0121 14.6898 37.2206 14.6898C37.6042 14.6898 37.9878 14.7073 38.3631 14.6548C38.7509 14.5979 38.9594 14.3089 38.9886 13.8885C39.0136 13.4549 38.9219 13.0652 38.4966 12.9076C38.0671 12.7455 37.6084 12.8112 37.1622 12.8463C37.0038 12.8594 36.9454 12.9908 36.9412 13.144C36.937 13.3367 36.9412 13.5294 36.9412 13.7177H36.9329ZM36.9245 8.41905C36.9245 8.59422 36.937 8.76937 36.9245 8.94453C36.887 9.34303 37.0705 9.48754 37.4249 9.44375C37.6042 9.42185 37.796 9.42623 37.967 9.3693C38.4299 9.22042 38.6175 8.7431 38.4841 8.11252C38.3798 7.63083 37.9295 7.40312 37.2664 7.4907C36.7118 7.56514 37.0037 8.02494 36.9287 8.31396C36.9204 8.34461 36.9287 8.38402 36.9287 8.41905H36.9245Z" fill="black" fill-opacity="0.05"/>
<path d="M23.2097 9.12846C23.4599 8.70807 23.6976 8.31834 23.9269 7.92422C24.519 6.90829 25.1112 5.89673 25.6866 4.87641C25.8659 4.55236 26.0869 4.41224 26.4497 4.41662C27.5673 4.43413 28.6806 4.41661 29.7981 4.42537C30.311 4.42537 30.3486 4.49544 30.0817 4.95524C29.0309 6.7813 27.9842 8.60735 26.9126 10.4203C26.6999 10.7794 26.7041 11.0552 26.8959 11.4231C28.0218 13.5469 29.1226 15.6839 30.2276 17.8165C30.507 18.3595 30.4904 18.3989 29.9149 18.3989C28.8307 18.3989 27.7507 18.3857 26.6665 18.4076C26.2621 18.4164 26.0369 18.2719 25.8451 17.8909C25.0153 16.2356 24.1521 14.5979 23.3014 12.9557C23.2722 12.8988 23.2305 12.8506 23.1847 12.7806C23.0554 12.9601 23.1138 13.1396 23.1138 13.3017C23.1096 14.8037 23.1013 16.3101 23.1138 17.8121C23.1138 18.2325 22.9887 18.412 22.5675 18.4033C21.4834 18.3814 20.4033 18.3814 19.3192 18.4033C18.8938 18.412 18.7813 18.2237 18.7813 17.8077C18.7896 13.5425 18.7896 9.27734 18.7813 5.01217C18.7813 4.59178 18.9022 4.41224 19.3233 4.41662C20.4075 4.43413 21.4875 4.43851 22.5717 4.41662C22.9929 4.40786 23.1221 4.59616 23.1138 5.01217C23.0971 6.19888 23.1055 7.38998 23.1138 8.5767C23.1138 8.7431 23.0596 8.92264 23.2055 9.12846H23.2097Z" fill="black" fill-opacity="0.05"/>
<path d="M56.252 18.3945C55.7183 18.3945 55.1845 18.3814 54.655 18.3989C54.3255 18.4076 54.1087 18.2982 54.0378 17.9391C54.0378 17.9216 54.0253 17.904 54.0211 17.8909C53.846 17.4223 53.8543 16.7961 53.4874 16.5115C53.0787 16.1962 52.4866 16.4195 51.9779 16.402C51.4441 16.3801 50.9104 16.402 50.3808 16.3976C50.1056 16.3976 49.9388 16.5115 49.8679 16.7918C49.8512 16.8575 49.8262 16.9231 49.8054 16.9888C49.4968 17.9289 48.8602 18.3989 47.8955 18.3989C47.145 18.3989 46.3944 18.3814 45.648 18.4033C45.1893 18.4164 45.1142 18.2587 45.2518 17.8121C46.2526 14.5322 47.2325 11.2479 48.2166 7.96363C48.521 6.9477 48.8338 5.93176 49.1215 4.91145C49.2216 4.55237 49.405 4.40786 49.7678 4.41223C51.098 4.42975 52.4324 4.42537 53.7626 4.41223C54.0962 4.41223 54.2755 4.53923 54.3797 4.87641C55.6807 9.21166 56.9859 13.5425 58.2953 17.869C58.4245 18.2938 58.2786 18.3989 57.9033 18.3901C57.3529 18.377 56.8025 18.3901 56.2562 18.3901L56.252 18.3945ZM51.8153 10.6655C51.7777 10.6655 51.7402 10.6655 51.7027 10.6655C51.5567 11.1209 51.4149 11.5763 51.269 12.0361C50.8645 13.3192 50.9229 13.3805 52.2281 13.2228C52.4491 13.1966 52.5366 13.1178 52.4699 12.8944C52.2531 12.15 52.0321 11.4099 51.8111 10.6655H51.8153Z" fill="black" fill-opacity="0.05"/>
<path d="M40.2396 32.1578C39.856 32.1578 39.4723 32.1578 39.0887 32.1578C38.826 32.1578 38.5966 32.1534 38.5508 31.7812C38.5174 31.4966 38.2756 31.606 38.1046 31.6017C36.9412 31.571 35.8153 31.3915 34.8187 30.6908C33.3884 29.6836 32.7296 28.2692 32.8964 26.4782C33.0507 24.8098 33.9472 23.645 35.3483 22.8961C36.199 22.4407 37.1247 22.3093 38.0629 22.3093C38.384 22.3093 38.5883 22.2918 38.5758 21.8933C38.5675 21.6131 38.7509 21.5386 38.9719 21.5386C39.8059 21.5386 40.6357 21.5386 41.4697 21.5386C41.6949 21.5386 41.8825 21.6218 41.8784 21.889C41.8784 22.2699 42.0827 22.2787 42.3662 22.2787C43.3045 22.2787 44.2302 22.3969 45.085 22.8392C46.6988 23.6756 47.5745 25.0594 47.562 26.938C47.5453 28.8691 46.5987 30.2354 44.9391 31.0499C44.1093 31.4572 43.2127 31.5535 42.3079 31.571C42.1786 31.571 41.9743 31.5097 41.9534 31.6586C41.8533 32.333 41.3655 32.1315 40.986 32.1534C40.7358 32.1666 40.4856 32.1534 40.2354 32.1534L40.2396 32.1578ZM38.5716 26.9424C38.5716 26.7847 38.5716 26.6271 38.5716 26.4738C38.5716 25.4535 38.4048 25.3046 37.4374 25.4666C37.3373 25.4842 37.2414 25.5104 37.1455 25.5323C36.4658 25.7031 36.1072 26.1936 36.1072 26.9161C36.1072 28.0021 36.9579 28.4312 38.0462 28.405C38.4299 28.3962 38.6133 28.2035 38.5758 27.7788C38.5508 27.5029 38.5716 27.2226 38.5716 26.9424ZM41.895 26.9073C41.895 27.2401 41.895 27.5686 41.895 27.9014C41.895 28.059 41.9034 28.2123 42.0618 28.3086C42.7874 28.764 44.1593 28.0634 44.2802 27.1745C44.4178 26.1629 43.8299 25.4885 42.7666 25.436C41.9868 25.3966 41.8992 25.4798 41.895 26.2811C41.895 26.4913 41.895 26.7015 41.895 26.9073Z" fill="black" fill-opacity="0.05"/>
<path d="M31.4161 26.8986C31.4161 30.0778 29.1935 32.3461 26.0869 32.3461C22.972 32.3461 20.6994 30.0427 20.7036 26.8811C20.7036 23.7238 22.9428 21.4423 26.0411 21.4292C29.1476 21.416 31.4161 23.7238 31.4161 26.8986ZM26.0119 24.6915C25.5991 24.6653 25.2238 24.8579 24.9277 25.2345C24.2772 26.0666 24.2605 27.0037 24.5816 27.9583C24.8568 28.7772 25.328 29.0881 26.0869 29.0793C26.7791 29.0706 27.3254 28.6502 27.5756 27.9014C27.8091 27.2007 27.8049 26.4869 27.5506 25.7951C27.2754 25.0506 26.7791 24.7003 26.0077 24.6959L26.0119 24.6915Z" fill="black" fill-opacity="0.05"/>
<path d="M8.93611 26.846C8.93611 28.4181 8.9236 29.9902 8.94445 31.5622C8.94862 32.022 8.79433 32.1797 8.36483 32.1622C7.65178 32.1359 6.93455 32.1315 6.21733 32.1622C5.7503 32.1841 5.60852 31.9914 5.61269 31.5228C5.6252 29.3377 5.62104 27.1569 5.61687 24.9718C5.61687 24.2799 5.61269 24.2799 4.94551 24.2755C4.6286 24.2755 4.31168 24.2755 3.99477 24.2755C3.32342 24.2755 3.31924 24.2799 3.31924 24.9674C3.31924 27.0825 3.31924 29.1976 3.31924 31.3083C3.31924 31.8688 3.05515 32.1505 2.52696 32.1534C1.8431 32.1534 1.16341 32.1447 0.479542 32.1534C0.145949 32.1578 0 32.0308 0 31.663C0.00833981 28.4488 0.00833981 25.2345 0 22.0203C0 21.6569 0.141777 21.5211 0.475369 21.5211C3.13994 21.5255 5.80034 21.5255 8.46491 21.5211C8.84437 21.5211 8.94862 21.705 8.94445 22.0685C8.93194 23.6581 8.94028 25.2477 8.94028 26.8373L8.93611 26.846Z" fill="black" fill-opacity="0.05"/>
<path d="M11.5089 26.8285C11.5089 25.274 11.5215 23.7194 11.5006 22.1648C11.4964 21.6963 11.634 21.5036 12.1011 21.5211C13.6606 21.5868 15.2327 21.381 16.7839 21.635C17.9973 21.832 18.8855 22.5852 19.2024 23.842C19.5318 25.147 19.4484 26.43 18.3726 27.3978C17.6429 28.0503 16.7672 28.2736 15.8206 28.2648C14.7239 28.2561 14.8365 28.1335 14.8324 29.2983C14.8324 30.0821 14.8198 30.8704 14.8324 31.6542C14.8407 32.0571 14.6614 32.1622 14.3153 32.1578C13.5522 32.1447 12.7849 32.1403 12.0218 32.1578C11.6174 32.1709 11.5048 31.9739 11.5089 31.5885C11.5173 29.9989 11.5089 28.4093 11.5089 26.8241V26.8285ZM14.8324 24.8536C14.8324 25.563 14.8615 25.6155 15.2827 25.6199C15.7706 25.6287 15.9916 25.4272 16.0041 24.9674C16.0166 24.4901 15.7372 24.2099 15.2619 24.1748C14.7281 24.1398 14.8532 24.5383 14.8324 24.8492V24.8536Z" fill="black" fill-opacity="0.05"/>
</svg>
