<svg width="64" height="60" viewBox="0 0 64 60" fill="none" xmlns="http://www.w3.org/2000/svg">
<path d="M19.8936 23.5C21.0143 23.5 21.9046 23.5982 22.5646 23.7946C23.237 23.9788 23.7226 24.3102 24.0215 24.789C24.3203 25.2677 24.4697 25.9429 24.4697 26.8145C24.4697 27.7229 24.2892 28.4164 23.9281 28.8952C23.5794 29.3617 23.0004 29.6317 22.191 29.7054V29.8159C23.1872 29.9018 23.8845 30.2332 24.2829 30.8102C24.6814 31.3749 24.8806 32.1667 24.8806 33.1856C24.8806 34.0571 24.725 34.7323 24.4137 35.2111C24.1148 35.6898 23.6417 36.0274 22.9942 36.2238C22.3591 36.4079 21.5248 36.5 20.4913 36.5C19.657 36.5 18.9286 36.4939 18.306 36.4816C17.6959 36.4816 17.1293 36.4693 16.6063 36.4448C16.0833 36.4202 15.5479 36.3895 15 36.3527L15.2802 34.4009C15.579 34.4131 16.1518 34.4254 16.9985 34.4377C17.8577 34.45 18.8539 34.4561 19.987 34.4561C20.51 34.4561 20.9209 34.407 21.2198 34.3088C21.5186 34.2106 21.7241 34.0326 21.8361 33.7748C21.9607 33.5047 22.0229 33.1242 22.0229 32.6332C22.0229 32.1053 21.9607 31.7063 21.8361 31.4363C21.7116 31.1539 21.4937 30.9575 21.1824 30.847C20.8836 30.7366 20.4664 30.6752 19.931 30.6629H15.2615V28.8768H19.8936C20.3543 28.8645 20.7155 28.8154 20.9769 28.7295C21.2509 28.6435 21.4439 28.4778 21.556 28.2323C21.668 27.9868 21.7241 27.6431 21.7241 27.2011C21.7241 26.7469 21.6618 26.4032 21.5373 26.17C21.4252 25.9245 21.226 25.7587 20.9396 25.6728C20.6532 25.5869 20.2547 25.5439 19.7442 25.5439C19.0469 25.5439 18.4305 25.5439 17.8951 25.5439C17.3596 25.5439 16.8802 25.5501 16.4569 25.5623C16.0335 25.5623 15.6413 25.5746 15.2802 25.5992L15 23.6473C15.4981 23.5982 15.9775 23.5675 16.4382 23.5552C16.9114 23.5307 17.4219 23.5184 17.9698 23.5184C18.5177 23.5061 19.159 23.5 19.8936 23.5ZM17.8017 23.6473V36.3527H15V23.6473H17.8017Z" fill="#35679A"/>
<path d="M36.7789 23.6473L32.427 32.3201H29.7373L25.3667 23.6473H28.3365L30.5031 28.3244C30.6152 28.5699 30.7086 28.8338 30.7833 29.1162C30.858 29.3985 30.9265 29.6686 30.9888 29.9264H31.1755C31.2503 29.6686 31.325 29.3985 31.3997 29.1162C31.4744 28.8338 31.5616 28.5699 31.6612 28.3244L33.8091 23.6473H36.7789ZM32.5017 30.6077V36.3527H29.644V30.6077H32.5017Z" fill="#35679A"/>
<path d="M49 23.6473V35.34C49 36.0151 48.6576 36.3527 47.9727 36.3527H46.4038C46.0925 36.3527 45.8559 36.2852 45.694 36.1501C45.5321 36.0028 45.3827 35.788 45.2457 35.5057L41.6782 28.84C41.5288 28.5576 41.3794 28.2446 41.23 27.9009C41.093 27.5571 40.9747 27.2257 40.8751 26.9065H40.6696C40.707 27.238 40.7381 27.5756 40.763 27.9193C40.7879 28.2507 40.8004 28.5822 40.8004 28.9136V36.3527H38.0921V24.6601C38.0921 23.9849 38.4407 23.6473 39.138 23.6473H40.6883C40.9872 23.6473 41.2113 23.721 41.3607 23.8683C41.5226 24.0033 41.6782 24.212 41.8277 24.4943L45.2831 30.9575C45.4325 31.2399 45.5882 31.5529 45.75 31.8966C45.9119 32.2403 46.0676 32.5963 46.217 32.9646H46.4411C46.4038 32.5963 46.3726 32.2403 46.3477 31.8966C46.3353 31.5406 46.3291 31.1908 46.3291 30.847L46.3104 23.6473H49Z" fill="#35679A"/>
<path fill-rule="evenodd" clip-rule="evenodd" d="M3.50036 30.0558C4.32879 30.0542 4.99733 30.7251 5.04494 31.5522C5.38291 37.4241 7.63123 43.0409 11.4686 47.5343C15.6315 52.4088 21.3929 55.6433 27.7222 56.659C34.0514 57.6747 40.5356 56.4053 46.0147 53.0781C50.5447 50.3272 54.1433 46.3181 56.3943 41.5731L51.5286 43.4039C50.7532 43.6957 49.8881 43.3037 49.5964 42.5283C49.3046 41.7529 49.6967 40.8879 50.472 40.5961L58.5235 37.5666C59.261 37.2891 60.0874 37.6295 60.4155 38.3459L63.8641 45.8754C64.209 46.6286 63.8781 47.5189 63.1249 47.8638C62.3717 48.2088 61.4815 47.8778 61.1365 47.1246L59.1444 42.775C56.646 48.0839 52.6318 52.5696 47.5719 55.6423C41.484 59.3393 34.2794 60.7496 27.2469 59.6211C20.2143 58.4925 13.8128 54.8987 9.18732 49.4825C4.88731 44.4474 2.38308 38.1428 2.04078 31.5582C1.99777 30.7309 2.67194 30.0574 3.50036 30.0558Z" fill="#35679A"/>
<path fill-rule="evenodd" clip-rule="evenodd" d="M60.5003 29.9971C59.6719 29.9987 59.0033 29.3278 58.9557 28.5007C58.6178 22.6288 56.3694 17.012 52.5321 12.5186C48.3691 7.64404 42.6077 4.40961 36.2785 3.39392C29.9492 2.37822 23.4651 3.64753 17.986 6.97477C13.456 9.72563 9.85742 13.7348 7.60634 18.4798L12.4721 16.6489C13.2475 16.3572 14.1125 16.7492 14.4043 17.5246C14.696 18.2999 14.304 19.165 13.5286 19.4567L5.47715 22.4863C4.73969 22.7638 3.91323 22.4234 3.58513 21.707L0.136602 14.1774C-0.208358 13.4242 0.122579 12.534 0.875768 12.1891C1.62896 11.8441 2.51918 12.175 2.86414 12.9282L4.85624 17.2778C7.35472 11.969 11.3689 7.48326 16.4288 4.41054C22.5167 0.713608 29.7213 -0.696732 36.7538 0.431814C43.7863 1.56036 50.1879 5.15417 54.8134 10.5703C59.1134 15.6054 61.6176 21.9101 61.9599 28.4947C62.0029 29.322 61.3287 29.9955 60.5003 29.9971Z" fill="#35679A"/>
</svg>
