<svg width="22" height="22" viewBox="0 0 22 22" fill="none" xmlns="http://www.w3.org/2000/svg">
<path d="M21.5607 2.56066C22.1464 1.97487 22.1464 1.02513 21.5607 0.43934C20.9749 -0.146447 20.0251 -0.146447 19.4393 0.43934L11 8.87868L2.56066 0.43934C1.97487 -0.146447 1.02513 -0.146447 0.439341 0.43934C-0.146446 1.02513 -0.146446 1.97487 0.439341 2.56066L8.87868 11L0.43934 19.4393C-0.146447 20.0251 -0.146447 20.9749 0.43934 21.5607C1.02513 22.1464 1.97487 22.1464 2.56066 21.5607L11 13.1213L19.4393 21.5607C20.0251 22.1464 20.9749 22.1464 21.5607 21.5607C22.1464 20.9749 22.1464 20.0251 21.5607 19.4393L13.1213 11L21.5607 2.56066Z" fill="black" fill-opacity="0.1"/>
</svg>
