<svg width="24" height="24" viewBox="0 0 24 24" fill="none" xmlns="http://www.w3.org/2000/svg">
<path d="M22.5 6C22.4985 5.6138 22.348 5.24307 22.08 4.965C21.9406 4.81875 21.7731 4.70217 21.5875 4.62226C21.4019 4.54236 21.2021 4.50077 21 4.5H3C2.6138 4.50154 2.24307 4.65198 1.965 4.92C1.81875 5.05942 1.70217 5.22695 1.62226 5.41254C1.54236 5.59812 1.50077 5.79794 1.5 6V18C1.50154 18.3862 1.65198 18.7569 1.92 19.035C2.05942 19.1813 2.22695 19.2978 2.41254 19.3777C2.59812 19.4576 2.79794 19.4992 3 19.5H21C21.3862 19.4985 21.7569 19.348 22.035 19.08C22.1813 18.9406 22.2978 18.7731 22.3777 18.5875C22.4576 18.4019 22.4992 18.2021 22.5 18V6ZM3 7.0875L7.9425 12L3 16.965V7.0875ZM12 13.965L4.0575 6H19.9425L12 13.965ZM9 13.0875L11.475 15.5625C11.6194 15.6901 11.8074 15.7573 12 15.75C12.0992 15.7496 12.1974 15.7295 12.2888 15.6909C12.3802 15.6522 12.463 15.5959 12.5325 15.525L15 13.0875L19.9425 18H4.0575L9 13.0875ZM16.0575 12L21 7.0875V16.965L16.0575 12Z" fill="#333333"/>
</svg>
