<svg width="62" height="54" viewBox="0 0 62 54" fill="none" xmlns="http://www.w3.org/2000/svg">
<path fill-rule="evenodd" clip-rule="evenodd" d="M19.8836 0.629427C20.1098 0.543852 20.3496 0.5 20.5914 0.5H41.4086C41.6504 0.5 41.8902 0.543852 42.1164 0.629428L60.2078 7.47483C60.9855 7.7691 61.5 8.51388 61.5 9.3454V23.3178C61.5 24.6696 60.1868 25.632 58.8977 25.2249L52 23.0467V51.5C52 52.6046 51.1046 53.5 50 53.5H12C10.8954 53.5 10 52.6046 10 51.5V23.0467L3.10226 25.2249C1.81322 25.632 0.5 24.6696 0.5 23.3178V9.34541C0.5 8.51388 1.0145 7.7691 1.79222 7.47483L19.8836 0.629427ZM19.1928 4.09839L3.5 10.0362V21.9533L10.3977 19.7751C11.6868 19.368 13 20.3304 13 21.6822V50.5H49V21.6822C49 20.3304 50.3132 19.368 51.6023 19.7751L58.5 21.9533V10.0362L42.8072 4.09839C42.6257 5.2579 42.2674 6.80589 41.552 8.37294C40.8198 9.97694 39.692 11.6462 37.9549 12.9146C36.2014 14.1949 33.9171 15 31 15C28.0829 15 25.7986 14.1949 24.0451 12.9146C22.308 11.6462 21.1802 9.97694 20.448 8.37294C19.7326 6.80589 19.3743 5.2579 19.1928 4.09839ZM39.8637 3.5H22.1363C22.1398 3.52353 22.1433 3.54727 22.147 3.57121C22.2975 4.56011 22.5956 5.85353 23.177 7.12706C23.7573 8.39806 24.5982 9.60381 25.8142 10.4917C27.0139 11.3676 28.6671 12 31 12C33.3329 12 34.9861 11.3676 36.1858 10.4917C37.4018 9.60381 38.2427 8.39806 38.823 7.12706C39.4044 5.85353 39.7025 4.56011 39.853 3.57121C39.8567 3.54727 39.8602 3.52353 39.8637 3.5Z" fill="#35679A"/>
</svg>
