<svg width="14" height="14" viewBox="0 0 14 14" fill="none" xmlns="http://www.w3.org/2000/svg">
<path d="M5.5 5.25C5.91421 5.25 6.25 5.58579 6.25 6V10.5C6.25 10.9142 5.91421 11.25 5.5 11.25C5.08579 11.25 4.75 10.9142 4.75 10.5V6C4.75 5.58579 5.08579 5.25 5.5 5.25Z" fill="black" fill-opacity="0.25"/>
<path d="M9.25 6C9.25 5.58579 8.91421 5.25 8.5 5.25C8.08579 5.25 7.75 5.58579 7.75 6V10.5C7.75 10.9142 8.08579 11.25 8.5 11.25C8.91421 11.25 9.25 10.9142 9.25 10.5V6Z" fill="black" fill-opacity="0.25"/>
<path fill-rule="evenodd" clip-rule="evenodd" d="M5 0.25C4.58579 0.25 4.25 0.585786 4.25 1V2.75H1.5C1.08579 2.75 0.75 3.08579 0.75 3.5C0.75 3.91421 1.08579 4.25 1.5 4.25H2.25V13C2.25 13.4142 2.58579 13.75 3 13.75H11C11.4142 13.75 11.75 13.4142 11.75 13V4.25H12.5C12.9142 4.25 13.25 3.91421 13.25 3.5C13.25 3.08579 12.9142 2.75 12.5 2.75H9.75V1C9.75 0.585786 9.41421 0.25 9 0.25H5ZM8.25 2.75V1.75H5.75V2.75H8.25ZM10.25 4.25H3.75V12.25H10.25V4.25Z" fill="black" fill-opacity="0.25"/>
</svg>
